<?xml version="1.0" encoding="utf-8"?>
<!-- Generator: Adobe Illustrator 24.0.0, SVG Export Plug-In . SVG Version: 6.00 Build 0)  -->
<svg version="1.1" xmlns="http://www.w3.org/2000/svg" xmlns:xlink="http://www.w3.org/1999/xlink" x="0px" y="0px"
	 viewBox="0 0 132.13 67.25" style="enable-background:new 0 0 132.13 67.25;" xml:space="preserve">
<style type="text/css">
	.st0{fill-rule:evenodd;clip-rule:evenodd;fill:#FFFFFF;}
</style>
<g id="Guides_For_Artboard">
</g>
<g id="Layer_1">
</g>
<g id="Layer_2">
	<g>
		<path class="st0" d="M124.4,18.74c0,0-7.44,0.34-12.54,1.38c-6.78,1.38-16.34,2.95-31.83,10.86c-15.5,7.91-22.32,9.1-32.51,8.99
			c-10.19-0.11-18.01-4.13-18.31-5.31s1.73-1.19,3.25-1.03c1.52,0.16,14.68,0.65,25.74-3.36c11.05-4.01,30.09-14.03,43.18-15.12
			c13.1-1.09,17.23,0.38,17.23,0.38L124.4,18.74z"/>
		<path class="st0" d="M112.22,18.74c-1.02,0.36-1.8,1.11-2.24,2.02c-0.43,0.91-0.52,1.98-0.15,3l0.01,0.02
			c0.37,1.01,1.11,1.79,2.01,2.22c0.91,0.43,1.98,0.52,3,0.15l0.03-0.01c1.01-0.37,1.78-1.11,2.2-2.01c0.43-0.91,0.52-1.98,0.15-3
			l-0.01-0.02c-0.37-1.01-1.11-1.79-2.01-2.22C114.31,18.47,113.23,18.38,112.22,18.74L112.22,18.74z M117.94,26.63
			c0.01-0.01,2.15-4.9,3.31-6.23c0.4-0.46,0.87-1.04,1.29-1.56c-4.08-1.51-15.7-4.72-31.78-0.04c-0.02,0.01-0.05,0.01-0.07,0.02
			c-1.03,0.3-2.08,0.63-3.14,1c-1.51,0.52-4.12,1.67-7.38,3.1c-4.82,2.12-11.05,4.86-17.61,7.27c-16.08,5.89-33.97,9.61-38.45-2.63
			c-0.27-0.73-0.51-1.43-0.76-2.17c-1.22-3.56-2.78-8.1-5.45-11.35c0.89,2.22,1.63,4.92,1.9,8.05c0.79,9.46-1.96,12.53-5.8,16.82
			l-0.11,0.12c-0.91,1.02-1.95,1.99-3.01,2.89c1.94-0.77,3.94-1.75,5.66-2.98c3.06-2.18,5.62-3.25,8.31-3.05
			c2.65,0.19,5.26,1.61,8.4,4.39c6.33,5.61,12.93,10.11,19.86,13.02c0.02,0.01,0.04,0.02,0.07,0.03c5.53,2.32,11.28,3.63,17.27,3.69
			c10.03,0.11,20.81-3.24,32.5-11.16c-0.94-0.22-1.91-0.61-2.83-1.21c-1.23-0.81-2.38-2-3.29-3.69c-1.47-2.75-2.28-6.86-1.58-12.83
			c0.09-0.76,0.77-1.31,1.53-1.22c0.76,0.09,1.31,0.77,1.22,1.53c-0.62,5.35,0.04,8.91,1.27,11.22c0.66,1.23,1.49,2.09,2.37,2.67
			c0.86,0.56,1.77,0.85,2.6,0.95c1.01,0.12,1.88-0.03,2.4-0.31c0.18-0.1,0.38-0.15,0.57-0.16c2.77-2.1,5.59-4.45,8.47-7.08
			c3.5-3.19,5.49-6.29,7.07-8.76c1.64-2.56,2.9-4.52,5.04-5.55c0.69-0.33,1.51-0.04,1.84,0.65c0.33,0.69,0.04,1.51-0.65,1.84
			c-1.42,0.68-2.5,2.36-3.9,4.55c-1.68,2.61-3.77,5.87-7.54,9.31c-6.66,6.08-13.07,10.76-19.25,14.22
			c-0.75,1.48-3.96,7.46-7.54,9.72c-0.65,0.41-1.5,0.21-1.91-0.43c-0.41-0.65-0.21-1.5,0.43-1.91c1.65-1.04,3.26-3.15,4.49-5.05
			c-8.17,3.85-15.93,5.54-23.33,5.45c-6.13-0.07-11.99-1.35-17.62-3.62c-1.87,1.27-7.42,4.3-15.43,2.1c-0.74-0.2-1.17-0.96-0.97-1.7
			c0.2-0.74,0.96-1.17,1.7-0.97c5.36,1.47,9.35,0.29,11.58-0.8c-6.36-3.02-12.43-7.27-18.26-12.45c-2.66-2.36-4.77-3.56-6.76-3.7
			c-1.96-0.14-3.99,0.75-6.51,2.54c-5.47,3.9-13.54,5.55-14.53,5.74c-0.59,0.16-1.24-0.1-1.55-0.65c-0.38-0.66-0.15-1.51,0.51-1.89
			c0.02-0.01,5.76-3.29,9.26-7.2l0.11-0.12c3.37-3.77,5.78-6.47,5.09-14.75c-0.71-8.49-5.29-13.35-5.3-13.36l0,0
			c-0.27-0.29-0.41-0.69-0.35-1.11c0.1-0.76,0.79-1.29,1.55-1.19c0.01,0,2.1,0.24,6.35,4.77c3.48,3.72,5.3,9,6.69,13.07
			c0.27,0.79,0.53,1.53,0.74,2.12c3.69,10.08,20.09,6.4,34.9,0.98c6.47-2.37,12.67-5.09,17.45-7.2c3.27-1.44,5.88-2.59,7.59-3.18
			c0.53-0.18,1.05-0.35,1.56-0.52c-1.25-1.75-2.94-3.26-4.85-4.51c-2.18-1.42-4.65-2.5-7.09-3.17c0.32,4.52-2.67,8.34-7.1,11.43
			c-4.2,2.93-9.71,5.22-14.76,6.79c-4.71,1.47-9.05,2.34-11.54,2.54c-0.76,0.06-1.43-0.51-1.49-1.27c-0.06-0.76,0.51-1.43,1.27-1.49
			c2.33-0.18,6.43-1.01,10.93-2.42c4.83-1.51,10.07-3.68,14-6.41c3.68-2.57,6.18-5.61,5.91-9.02c-0.04-0.51-0.14-1.03-0.31-1.56h0
			c-0.07-0.21-0.08-0.44-0.04-0.67c0.14-0.75,0.86-1.25,1.61-1.11c3.4,0.65,7,2.03,10.1,4.04c2.46,1.61,4.62,3.62,6.12,6
			c20.67-5.68,34.31,1.12,34.35,1.14v0c0.08,0.04,0.15,0.08,0.22,0.13c0.61,0.46,0.74,1.32,0.29,1.93c0,0.01-1.46,1.94-2.52,3.14
			c-0.88,1.01-2.85,5.5-2.86,5.52c-0.3,0.7-1.12,1.02-1.82,0.72C117.95,28.14,117.63,27.33,117.94,26.63L117.94,26.63z
			 M112.48,21.95c0.13-0.27,0.36-0.48,0.65-0.59c0.31-0.11,0.63-0.08,0.9,0.04c0.27,0.13,0.49,0.36,0.59,0.66l0,0
			c0.11,0.31,0.08,0.63-0.04,0.9c-0.13,0.27-0.36,0.48-0.66,0.59v0l0,0c-0.31,0.11-0.63,0.08-0.9-0.04
			c-0.27-0.13-0.48-0.35-0.59-0.65v0C112.33,22.54,112.35,22.22,112.48,21.95z"/>
	</g>
</g>
</svg>
