<?xml version="1.0" encoding="utf-8"?>
<!-- Generator: Adobe Illustrator 24.0.0, SVG Export Plug-In . SVG Version: 6.00 Build 0)  -->
<svg version="1.1" id="Layer_1" xmlns="http://www.w3.org/2000/svg" xmlns:xlink="http://www.w3.org/1999/xlink" x="0px" y="0px"
	 viewBox="0 0 31.49 26.18" style="enable-background:new 0 0 31.49 26.18;" xml:space="preserve">
<style type="text/css">
	.st0{fill:#FFFFFF;}
</style>
<g>
	<g>
		<g>
			<g>
				<path class="st0" d="M9.33,7.13c0,0,0.81-0.95,0.16-2c0,0,5.74-0.47,11.51,1.45c0,0-5.45-1.34-10.48-0.91
					C10.53,5.67,10.58,6.58,9.33,7.13z"/>
				<path class="st0" d="M25.33,6.33c-0.6-1.31-0.64-2.59-0.48-3.66c-1.4,0.22-3.37,0.37-5.74,0.11c0,0,2.73,0.14,5.83-0.58
					C25.22,0.88,25.76,0,25.76,0s-4.03,2.39-12.98,2.25C3.84,2.11,0,5.83,0,5.83C1.52,5.78,1.74,7,2.53,6.74
					C3.32,6.49,3.61,7,3.61,7C2.74,5.13,0.64,5.63,0.64,5.63c0.5-0.3,0.99-0.55,1.48-0.77C2.08,4.92,2.06,5,2.07,5.09
					C2.1,5.3,2.3,5.45,2.51,5.42c0.21-0.03,0.35-0.22,0.32-0.43C2.81,4.82,2.69,4.7,2.54,4.67c2.54-1.09,4.63-1.25,4.63-1.25
					S8.13,3.95,7.2,5.84C6.27,7.72,8.03,9.13,8.03,9.13S7.6,8.33,8.78,7.17C9.96,6.01,9.01,4.8,9.01,4.8
					c5.34-0.65,16.11,1,19.1,5.89c2.99,4.88,1.3,8.53,1.3,8.53c-2.19-3.83-5.41-3.87-7.63-3.29c4.82,3.17,2.96,8.01,2.96,8.01
					c0.9-4.61-2.2-6.83-3.94-7.69c-0.92,0.35-1.51,0.72-1.51,0.72c7.83,1.71,3.86,9.23,3.86,9.23c2.46-0.44,9.39-2.62,8.21-10.2
					C30.18,8.41,25.33,6.33,25.33,6.33z"/>
				<path class="st0" d="M13.71,8.71c0,0,1.91,2.61,0.14,5.43c0,0,3.01-1.26,2.69-4.3c0,0,2.65,0.06,5.02,0.58
					C21.56,10.42,18.3,8.79,13.71,8.71z"/>
				<g>
					<path class="st0" d="M28.82,16.25C28.47,14,26.8,11.07,17,11.02c0.03-0.17,0.05-0.34,0.06-0.53c1.38,0.06,2.99,0.18,4.93,0.43
						c8.56,1.08,7.13,6.74,7.13,6.74c-1.51-2.7-4.96-3.1-4.96-3.1C27.54,14.4,28.82,16.25,28.82,16.25z"/>
					<path class="st0" d="M1.34,6.6c0.47,0.55,1.02,0.47,1.02,0.47c1.28,0.02,2.93,1.61,2.93,1.61S5.25,7.47,5.96,6.43
						C6.67,5.39,6.48,4.6,6.48,4.6s0.36,0.59-0.12,1.87C6.3,6.63,6.26,6.8,6.23,6.96C6.06,8.16,6.85,9.32,8.01,9.7
						c2,0.65,3.66,0.68,5.94,0.71c0.05,0.2,0.1,0.41,0.13,0.64C2.18,11.08,0.02,6.32,0.02,6.32C0.66,6.87,1.34,6.6,1.34,6.6z"/>
				</g>
			</g>
		</g>
	</g>
</g>
</svg>
