<?xml version="1.0" encoding="utf-8"?>
<!-- Generator: Adobe Illustrator 24.0.0, SVG Export Plug-In . SVG Version: 6.00 Build 0)  -->
<svg version="1.1" id="Layer_1" xmlns="http://www.w3.org/2000/svg" xmlns:xlink="http://www.w3.org/1999/xlink" x="0px" y="0px"
	 viewBox="0 0 553.85 974.77" style="enable-background:new 0 0 553.85 974.77;" xml:space="preserve">
<style type="text/css">
	.st0{fill:#FFFFFF;}
	.st1{fill:none;stroke:#000000;stroke-width:12.5522;stroke-linecap:round;stroke-linejoin:round;stroke-miterlimit:10;}
</style>
<g id="XMLID_2_">
	<g id="XMLID_3_">
		<g id="XMLID_5_">
			<path id="XMLID_56_" class="st0" d="M278.82,614.76c-1.74,0-3.41-0.73-4.6-2.01c-19.04-20.5-59.82-25.25-60.23-25.29
				c-2.49-0.28-4.57-2-5.31-4.39c-14.85-48.27-20.67-100.19-17.3-154.31c2.69-43.2,11.21-87.89,25.33-132.82
				c24.02-76.47,55.48-126.47,56.81-128.56c1.15-1.81,3.15-2.91,5.3-2.91c2.15,0,4.15,1.1,5.3,2.91
				c1.33,2.09,32.79,52.08,56.81,128.56c14.12,44.94,22.64,89.62,25.33,132.82c3.37,54.12-2.45,106.04-17.3,154.31
				c-0.74,2.39-2.82,4.12-5.31,4.39c-0.41,0.05-41.25,4.85-60.23,25.29C282.23,614.04,280.57,614.76,278.82,614.76z M219.53,575.57
				c10.86,1.72,40.28,7.7,59.29,24.21c19.01-16.51,48.43-22.49,59.29-24.21c31.02-104.7,12.3-207.43-9.05-275.52
				c-17.75-56.63-40.18-99.26-50.24-116.96c-10.06,17.7-32.49,60.33-50.24,116.96C207.23,368.15,188.52,470.88,219.53,575.57z"/>
		</g>
		<g id="XMLID_6_">
			<path id="XMLID_55_" class="st0" d="M358.29,511.08c-3.43,0-6.23-2.76-6.27-6.19c-0.05-3.47,2.73-6.31,6.19-6.36
				c66.22-0.87,120.53-70.63,135.19-91.32c-28.05-14.94-56.5-38.66-84.67-70.6c-24.08-27.3-48.05-60.68-71.25-99.22
				c-29.09-48.32-49.74-92.9-58.66-113.18c-8.92,20.28-29.57,64.87-58.66,113.18c-23.2,38.53-47.17,71.91-71.25,99.22
				c-28.17,31.95-56.62,55.66-84.67,70.6c14.66,20.69,68.97,90.45,135.19,91.32c3.47,0.04,6.24,2.89,6.19,6.36
				c-0.04,3.44-2.85,6.19-6.27,6.19c-0.03,0-0.06,0-0.08,0c-35.06-0.46-72.09-18.48-107.09-52.13
				c-26.1-25.09-41.79-49.71-42.44-50.74c-0.96-1.51-1.22-3.36-0.73-5.07s1.69-3.15,3.3-3.93c51.57-25.04,105.9-83.23,157.11-168.29
				c38.91-64.64,62.46-122.35,62.7-122.92c0.96-2.37,3.26-3.92,5.82-3.92h1.8c2.55,0,4.86,1.55,5.82,3.92
				c0.23,0.58,23.85,58.43,62.79,123.08c51.18,84.97,105.47,143.11,157.01,168.13c1.61,0.78,2.81,2.21,3.3,3.93s0.22,3.56-0.73,5.07
				c-0.65,1.04-16.34,25.65-42.44,50.74c-35,33.64-72.03,51.67-107.09,52.13C358.34,511.08,358.32,511.08,358.29,511.08z"/>
		</g>
		<g id="XMLID_7_">
			<path id="XMLID_54_" class="st0" d="M229.91,658.86c-0.97,0-1.96-0.23-2.89-0.71c-12.31-6.39-19.95-15.53-22.71-27.16
				c-5.82-24.57,13-50.96,13.8-52.07c2.03-2.81,5.96-3.44,8.76-1.4c2.81,2.03,3.44,5.95,1.41,8.76
				c-0.25,0.35-16.26,22.96-11.75,41.85c1.91,8.01,7.23,14.19,16.27,18.88c3.08,1.6,4.28,5.39,2.68,8.46
				C234.37,657.63,232.18,658.86,229.91,658.86z"/>
		</g>
		<g id="XMLID_4_">
			<path id="XMLID_53_" class="st0" d="M125.24,903.24c-2.3,0-4.51-1.27-5.61-3.46c-1.56-3.1-0.31-6.87,2.79-8.43
				c45.89-23.07,73.96-55.02,83.44-94.97c7.01-29.57,2.07-59.09-4.89-76.85c-12.93-32.99,8.02-76.55,8.92-78.39
				c1.52-3.11,5.28-4.41,8.39-2.88c3.11,1.52,4.4,5.28,2.89,8.39l0,0c-0.2,0.4-19.42,40.47-8.51,68.3
				c3.72,9.48,15.08,43.58,5.41,84.33c-10.37,43.72-40.66,78.47-90.01,103.28C127.15,903.03,126.19,903.24,125.24,903.24z"/>
		</g>
		<g id="XMLID_8_">
			<path id="XMLID_52_" class="st0" d="M189.84,909.66c-1.95,0-3.88-0.91-5.1-2.61c-2.02-2.82-1.38-6.74,1.43-8.76
				c87.27-62.72,59.15-145.29,48.45-169.1c-15.12-33.64-0.39-60.63,0.25-61.76c1.7-3.02,5.52-4.1,8.54-2.41
				c3.02,1.69,4.1,5.5,2.42,8.53c-0.55,1-12.18,22.86,0.24,50.5c5.36,11.93,17.33,43.74,12.79,81.43
				c-4.9,40.7-26.89,75.36-65.36,103.01C192.39,909.27,191.11,909.66,189.84,909.66z"/>
		</g>
		<g id="XMLID_12_">
			<path id="XMLID_51_" class="st0" d="M326.06,658.86c-2.27,0-4.46-1.23-5.58-3.39c-1.6-3.08-0.4-6.86,2.68-8.46
				c9.05-4.7,14.37-10.89,16.28-18.92c3.74-15.8-7.22-35.54-11.76-41.81c-2.03-2.81-1.4-6.73,1.4-8.76c2.81-2.03,6.73-1.4,8.76,1.4
				c0.81,1.11,19.63,27.5,13.8,52.07c-2.76,11.63-10.4,20.77-22.71,27.16C328.02,658.63,327.03,658.86,326.06,658.86z"/>
		</g>
		<g id="XMLID_11_">
			<path id="XMLID_50_" class="st0" d="M430.72,903.24c-0.95,0-1.91-0.22-2.81-0.67c-49.35-24.81-79.64-59.56-90.01-103.28
				c-9.67-40.76,1.7-74.85,5.41-84.33c10.94-27.92-8.32-67.9-8.51-68.3c-1.52-3.11-0.23-6.87,2.88-8.39
				c3.11-1.52,6.87-0.23,8.39,2.88c0.9,1.84,21.85,45.39,8.92,78.39c-6.96,17.77-11.9,47.29-4.89,76.85
				c9.48,39.94,37.55,71.9,83.44,94.97c3.1,1.56,4.34,5.33,2.79,8.43C435.23,901.98,433.02,903.24,430.72,903.24z"/>
		</g>
		<g id="XMLID_10_">
			<path id="XMLID_49_" class="st0" d="M366.13,909.66c-1.27,0-2.55-0.38-3.66-1.18c-38.47-27.65-60.46-62.3-65.36-103.01
				c-4.54-37.7,7.44-69.51,12.79-81.43c12.56-27.94,0.37-50.26,0.25-50.48c-1.69-3.02-0.62-6.85,2.41-8.54
				c3.02-1.69,6.85-0.62,8.54,2.41c0.63,1.13,15.37,28.12,0.25,61.76c-10.7,23.81-38.83,106.38,48.45,169.1
				c2.81,2.02,3.46,5.94,1.43,8.76C370.01,908.75,368.08,909.66,366.13,909.66z"/>
		</g>
		<g id="XMLID_9_">
			<g id="XMLID_13_">
				<path id="XMLID_48_" class="st0" d="M236.89,918.62c-1.45,0-2.9-0.5-4.08-1.51c-2.63-2.26-2.94-6.22-0.68-8.85
					c18.08-21.09,27.85-58.82,27.95-59.2c0.86-3.36,4.27-5.39,7.63-4.53c3.36,0.86,5.39,4.27,4.53,7.63
					c-0.42,1.66-10.61,40.97-30.58,64.26C240.42,917.87,238.66,918.62,236.89,918.62z"/>
			</g>
			<g id="XMLID_14_">
				<path id="XMLID_47_" class="st0" d="M320.75,918.62c-1.77,0-3.53-0.74-4.77-2.19c-19.97-23.29-30.15-62.6-30.58-64.27
					c-0.86-3.36,1.17-6.78,4.53-7.63c3.36-0.86,6.77,1.17,7.63,4.53l0,0c0.1,0.38,9.91,38.16,27.95,59.2
					c2.26,2.63,1.95,6.59-0.68,8.85C323.65,918.12,322.2,918.62,320.75,918.62z"/>
			</g>
		</g>
		<g id="XMLID_16_">
			<path id="XMLID_46_" class="st0" d="M276.91,750.11c-2.33,0-4.57-1.3-5.65-3.54c-16.47-34.02-7.48-57.39-7.08-58.36
				c1.29-3.22,4.93-4.78,8.16-3.5c3.21,1.28,4.77,4.91,3.51,8.12c-0.34,0.89-7.15,19.65,6.71,48.27c1.51,3.12,0.21,6.87-2.91,8.38
				C278.76,749.9,277.83,750.11,276.91,750.11z"/>
		</g>
		<g id="XMLID_15_">
			<path id="XMLID_63_" class="st1" d="M278.82,322.01"/>
		</g>
		<g id="XMLID_19_">
			<path id="XMLID_62_" class="st1" d="M278.82,387.21"/>
		</g>
		<g id="XMLID_22_">
			<path id="XMLID_45_" class="st0" d="M278.82,540.21c-3.47,0-6.28-2.81-6.28-6.28V419.82c0-3.47,2.81-6.28,6.28-6.28
				c3.47,0,6.28,2.81,6.28,6.28v114.11C285.1,537.4,282.29,540.21,278.82,540.21z"/>
		</g>
		<g id="XMLID_21_">
			<path id="XMLID_61_" class="st1" d="M278.82,533.93"/>
		</g>
		<g id="XMLID_17_">
			<path id="XMLID_44_" class="st0" d="M278.82,614.76c-3.47,0-6.28-2.81-6.28-6.28v-44.9c0-3.47,2.81-6.28,6.28-6.28
				c3.47,0,6.28,2.81,6.28,6.28v44.9C285.1,611.95,282.29,614.76,278.82,614.76z"/>
		</g>
		<g id="XMLID_25_">
			<path id="XMLID_43_" class="st0" d="M173.14,382.03c-0.61,0-1.23-0.09-1.84-0.28c-3.31-1.01-5.18-4.52-4.16-7.84
				c2.04-6.65,4.29-12.9,6.7-18.56c1.36-3.19,5.04-4.68,8.23-3.32c3.19,1.36,4.67,5.04,3.32,8.23c-2.24,5.26-4.34,11.08-6.25,17.32
				C178.32,380.3,175.83,382.03,173.14,382.03z"/>
		</g>
		<g id="XMLID_18_">
			<path id="XMLID_60_" class="st1" d="M173.14,375.76"/>
		</g>
		<g id="XMLID_26_">
			<path id="XMLID_59_" class="st1" d="M169.95,387.21"/>
		</g>
		<g id="XMLID_28_">
			<path id="XMLID_42_" class="st0" d="M165.14,416.3c-0.36,0-0.72-0.03-1.09-0.1c-3.41-0.6-5.7-3.85-5.1-7.26
				c0.97-5.54,2.05-10.94,3.2-16.05c0.76-3.38,4.12-5.5,7.5-4.74c3.38,0.76,5.5,4.12,4.74,7.5c-1.11,4.92-2.14,10.11-3.08,15.45
				C170.78,414.15,168.13,416.3,165.14,416.3z"/>
		</g>
		<g id="XMLID_24_">
			<path id="XMLID_41_" class="st0" d="M158.27,502.43c-3.41,0-6.21-2.73-6.27-6.15c-0.02-1.24-0.54-30.85,3.86-66.55
				c0.42-3.44,3.56-5.89,7-5.46c3.44,0.42,5.88,3.56,5.46,7c-4.3,34.82-3.78,64.47-3.77,64.77c0.07,3.46-2.69,6.33-6.15,6.4
				C158.36,502.43,158.31,502.43,158.27,502.43z"/>
		</g>
		<g id="XMLID_29_">
			<path id="XMLID_40_" class="st0" d="M386.58,389.28c-2.76,0-5.3-1.84-6.05-4.64c-2.43-8.98-5.22-17.18-8.28-24.37
				c-1.36-3.19,0.13-6.88,3.32-8.23c3.19-1.36,6.87,0.13,8.23,3.32c3.29,7.72,6.26,16.46,8.84,26c0.91,3.35-1.07,6.79-4.42,7.7
				C387.68,389.21,387.13,389.28,386.58,389.28z"/>
		</g>
		<g id="XMLID_30_">
			<path id="XMLID_39_" class="st0" d="M394.97,432.33c-3.1,0-5.79-2.29-6.21-5.45c-0.85-6.33-1.82-12.51-2.89-18.36
				c-0.62-3.41,1.64-6.68,5.05-7.3c3.41-0.62,6.68,1.64,7.3,5.05c1.11,6.05,2.11,12.42,2.98,18.95c0.46,3.44-1.95,6.59-5.39,7.05
				C395.53,432.31,395.25,432.33,394.97,432.33z"/>
		</g>
		<g id="XMLID_23_">
			<path id="XMLID_38_" class="st0" d="M399.37,502.43c-0.04,0-0.08,0-0.12,0c-3.46-0.07-6.22-2.93-6.15-6.4
				c0-0.22,0.38-21.84-2.16-49.67c-0.31-3.45,2.23-6.51,5.68-6.82c3.45-0.32,6.5,2.23,6.82,5.68c2.61,28.56,2.22,50.15,2.21,51.05
				C405.58,499.7,402.78,502.43,399.37,502.43z"/>
		</g>
		<g id="XMLID_27_">
			<g id="XMLID_31_">
				<path id="XMLID_37_" class="st0" d="M236.31,638.11c-1.94,0-3.86-0.9-5.08-2.59c-10.29-14.18-2.79-28.32,2.61-33.81
					c2.43-2.47,6.4-2.5,8.88-0.07c2.46,2.42,2.5,6.37,0.1,8.85c-0.85,0.9-7.88,8.77-1.43,17.67c2.04,2.81,1.41,6.73-1.39,8.77
					C238.88,637.72,237.59,638.11,236.31,638.11z"/>
			</g>
			<g id="XMLID_32_">
				<path id="XMLID_36_" class="st0" d="M321.33,638.11c-1.28,0-2.57-0.39-3.68-1.2c-2.81-2.04-3.43-5.96-1.39-8.77
					c6.47-8.91-0.61-16.8-1.43-17.67c-2.43-2.47-2.38-6.43,0.09-8.86c2.47-2.43,6.46-2.38,8.89,0.09c5.4,5.49,12.9,19.63,2.61,33.81
					C325.19,637.21,323.27,638.11,321.33,638.11z"/>
			</g>
		</g>
		<g id="XMLID_35_">
			<path id="XMLID_33_" class="st0" d="M239.47,337.06c-0.52,0-1.05-0.07-1.58-0.2c-3.35-0.87-5.37-4.3-4.49-7.65
				c2.45-9.41,5.31-17.59,8.5-24.31c1.49-3.13,5.23-4.47,8.36-2.98c3.13,1.49,4.47,5.23,2.98,8.36c-2.85,6.01-5.44,13.45-7.69,22.09
				C244.8,335.18,242.26,337.06,239.47,337.06z"/>
		</g>
		<g id="XMLID_20_">
			<path id="XMLID_34_" class="st0" d="M229.92,408.42c-0.06,0-0.11,0-0.17,0c-3.46-0.09-6.2-2.97-6.11-6.44
				c0.02-0.86,0.59-21.23,4.22-45.19c0.52-3.43,3.73-5.78,7.14-5.27c3.43,0.52,5.79,3.72,5.27,7.14
				c-3.51,23.2-4.08,43.44-4.09,43.65C236.1,405.72,233.31,408.42,229.92,408.42z"/>
		</g>
		<g id="XMLID_64_">
			<path id="XMLID_65_" class="st0" d="M335.16,483.15c-0.16,0-0.31-0.01-0.47-0.02c-3.46-0.26-6.05-3.27-5.79-6.72
				c2.22-29.91-2.14-53.5-2.18-53.73c-0.64-3.41,1.6-6.69,5-7.33c3.41-0.64,6.69,1.6,7.33,5c0.19,1.02,4.71,25.45,2.37,56.99
				C341.17,480.64,338.42,483.15,335.16,483.15z"/>
		</g>
	</g>
</g>
</svg>
